<svg width="78" height="33" viewBox="0 0 78 33" fill="none" xmlns="http://www.w3.org/2000/svg">
<path fill-rule="evenodd" clip-rule="evenodd" d="M16.0297 1.00699L16.2646 1H16.5H38V32H16.5H16.2646L16.0297 31.993C7.6872 31.7447 1 24.9031 1 16.5C1 8.09688 7.6872 1.25528 16.0297 1.00699ZM39 33H38H17H16.5H16V32.9926C7.11861 32.7282 0 25.4454 0 16.5C0 7.55456 7.11861 0.271763 16 0.00743111V0H16.5H17H38H39H61H61.5H62V0.00743111C70.8814 0.271763 78 7.55456 78 16.5C78 25.4454 70.8814 32.7282 62 32.9926V33H61.5H61H39ZM39 1H61.5H61.7354L61.9702 1.00699C70.3128 1.25528 77 8.09688 77 16.5C77 24.9031 70.3128 31.7447 61.9702 31.993L61.7354 32H61.5H39V1Z" fill="#EFEFEF"/>
<path fill-rule="evenodd" clip-rule="evenodd" d="M19.7071 15.2929L19 16L19.7071 16.7071L24 21L24.7071 20.2929L20.4142 16L24.7071 11.7071L24 11L19.7071 15.2929Z" fill="black"/>
<path fill-rule="evenodd" clip-rule="evenodd" d="M60 15.2929L60.7072 16L60 16.7071L55.7072 21L55 20.2929L59.2929 16L55 11.7071L55.7072 11L60 15.2929Z" fill="black"/>
</svg>
