<svg width="16" height="17" viewBox="0 0 16 17" fill="none" xmlns="http://www.w3.org/2000/svg">
<path fill-rule="evenodd" clip-rule="evenodd" d="M12 6.81309C12 9.80828 9.54644 12.2523 6.5 12.2523C3.45356 12.2523 1 9.80828 1 6.81309C1 3.81791 3.45356 1.37384 6.5 1.37384C9.54644 1.37384 12 3.81791 12 6.81309ZM10.5691 11.8348C9.45528 12.7217 8.0402 13.2523 6.5 13.2523C2.91015 13.2523 0 10.3694 0 6.81309C0 3.25679 2.91015 0.37384 6.5 0.37384C10.0899 0.37384 13 3.25679 13 6.81309C13 8.48518 12.3567 10.0084 11.3018 11.1531L15.7104 15.5205L15 16.2243L10.5691 11.8348Z" fill="#C4C4C4"/>
</svg>
