<svg xmlns="http://www.w3.org/2000/svg" viewBox="0 0 14 14"><defs><style>.cls-1{fill:#fff;fill-rule:evenodd;}</style></defs><g id="Calque_2" data-name="Calque 2"><g id="Calque_1-2" data-name="Calque 1"><path class="cls-1" d="M13.43,4.28a8.43,8.43,0,0,0-.65-1.18,7.28,7.28,0,0,0-.85-1,5.3,5.3,0,0,0-1-.85A8.43,8.43,0,0,0,9.72.57,9.35,9.35,0,0,0,8.42.15,9.22,9.22,0,0,0,7,0,6.23,6.23,0,0,0,5.58.15a5.48,5.48,0,0,0-1.3.42,8.43,8.43,0,0,0-1.18.65,7.28,7.28,0,0,0-1,.85,5.3,5.3,0,0,0-.85,1A8.43,8.43,0,0,0,.57,4.28a9.35,9.35,0,0,0-.42,1.3A9.22,9.22,0,0,0,0,7,6.23,6.23,0,0,0,.15,8.42a5.48,5.48,0,0,0,.42,1.3,8.43,8.43,0,0,0,.65,1.18,7.28,7.28,0,0,0,.85,1,5.3,5.3,0,0,0,1,.85,8.43,8.43,0,0,0,1.18.65,9.35,9.35,0,0,0,1.3.42A6,6,0,0,0,7,14a6.23,6.23,0,0,0,1.42-.15,5.48,5.48,0,0,0,1.3-.42,8.43,8.43,0,0,0,1.18-.65,7.28,7.28,0,0,0,1-.85,5.3,5.3,0,0,0,.85-1,8.43,8.43,0,0,0,.65-1.18,9.35,9.35,0,0,0,.42-1.3A9.22,9.22,0,0,0,14,7a6.23,6.23,0,0,0-.15-1.42A9.35,9.35,0,0,0,13.43,4.28ZM7,1A5.94,5.94,0,0,1,10.9,2.52,6.3,6.3,0,0,1,7.77,4.7,29,29,0,0,0,5.51,1.22,6.88,6.88,0,0,1,7,1Zm-1.41.16h0S5.51,1.22,5.55,1.19ZM4.4,1.61A37,37,0,0,1,6.62,5.05a22.43,22.43,0,0,1-5.55.73A6.2,6.2,0,0,1,4.4,1.61ZM2.52,11A6,6,0,0,1,1,7V6.81A22,22,0,0,0,7.15,6c.16.34.35.69.5,1-.08,0-.15,0-.23.08A9.45,9.45,0,0,0,2.52,11ZM7,13A6.1,6.1,0,0,1,3.21,11.7s0,0-.07-.07l.07.07a.12.12,0,0,0,.08,0A8.25,8.25,0,0,1,8,8H8A23.59,23.59,0,0,1,9.3,12.55,5.92,5.92,0,0,1,7,13Zm3.37-1A30.9,30.9,0,0,0,9.18,7.69,8.74,8.74,0,0,1,12.93,8,6.1,6.1,0,0,1,10.33,12ZM8.8,6.77c0-.11-.08-.19-.12-.31-.11-.3-.26-.57-.38-.88a7.52,7.52,0,0,0,3.33-2.37A6.22,6.22,0,0,1,13,7,13.25,13.25,0,0,0,8.8,6.77Z"/></g></g></svg>