<svg width="14" height="14" viewBox="0 0 14 14" fill="none" xmlns="http://www.w3.org/2000/svg">
<path fill-rule="evenodd" clip-rule="evenodd" d="M13.4262 4.28415C13.235 3.86339 13.0437 3.48087 12.776 3.09836C12.5082 2.71585 12.2404 2.37158 11.9344 2.06557C11.6284 1.75956 11.2842 1.45355 10.9016 1.22404C10.5191 0.956284 10.1366 0.765027 9.71585 0.57377C9.29508 0.382514 8.83607 0.26776 8.4153 0.153005C7.95628 0.0765027 7.49727 0 7 0C6.54098 0 6.04372 0.0382514 5.5847 0.153005C5.12568 0.229508 4.70492 0.382514 4.28415 0.57377C3.86339 0.765027 3.48087 0.956284 3.09836 1.22404C2.71585 1.4918 2.37158 1.75956 2.06557 2.06557C1.75956 2.37158 1.45355 2.71585 1.22404 3.09836C0.956284 3.48087 0.765027 3.86339 0.57377 4.28415C0.382514 4.70492 0.26776 5.16393 0.153005 5.5847C0.0765027 6.04372 0 6.50273 0 7C0 7.45902 0.0382514 7.95628 0.153005 8.4153C0.229508 8.87432 0.382514 9.29508 0.57377 9.71585C0.765027 10.1366 0.956284 10.5191 1.22404 10.9016C1.4918 11.2842 1.75956 11.6284 2.06557 11.9344C2.37158 12.2404 2.71585 12.5464 3.09836 12.776C3.48087 13.0437 3.86339 13.235 4.28415 13.4262C4.70492 13.6175 5.16393 13.7322 5.5847 13.847C6.04372 13.9617 6.50273 14 7 14C7.45902 14 7.95628 13.9617 8.4153 13.847C8.87432 13.7705 9.29508 13.6175 9.71585 13.4262C10.1366 13.235 10.5191 13.0437 10.9016 12.776C11.2842 12.5082 11.6284 12.2404 11.9344 11.9344C12.2404 11.6284 12.5464 11.2842 12.776 10.9016C13.0437 10.5191 13.235 10.1366 13.4262 9.71585C13.6175 9.29508 13.7322 8.83607 13.847 8.4153C13.9235 7.95628 14 7.49727 14 7C14 6.54098 13.9617 6.04372 13.847 5.5847C13.7322 5.16393 13.6175 4.70492 13.4262 4.28415ZM6.96175 1.03279C8.4918 1.03279 9.86885 1.60656 10.9016 2.52459C10.9016 2.56284 10.0219 3.86339 7.76503 4.70492C6.73224 2.8306 5.62295 1.3388 5.5082 1.22404C6.00546 1.10929 6.50273 1.03279 6.96175 1.03279ZM5.54645 1.18579C5.54645 1.22404 5.54645 1.22404 5.54645 1.18579C5.54645 1.22404 5.54645 1.22404 5.54645 1.18579C5.54645 1.22404 5.5082 1.22404 5.54645 1.18579ZM4.39891 1.60656C4.47541 1.72131 5.5847 3.21311 6.61749 5.04918C3.74863 5.81421 1.2623 5.77596 1.07104 5.77596C1.4918 3.93989 2.7541 2.40984 4.39891 1.60656ZM2.52459 11.0164C1.56831 9.94536 0.994536 8.56831 0.994536 7C0.994536 6.9235 0.994536 6.88525 0.994536 6.80874C1.10929 6.80874 4.05465 6.88525 7.15301 5.96721C7.30601 6.31148 7.49727 6.65574 7.65027 7C7.57377 7.03825 7.49727 7.03825 7.42076 7.0765C4.1694 8.10929 2.52459 11.0164 2.52459 11.0164ZM6.96175 13.0055C5.54645 13.0055 4.2459 12.5082 3.21311 11.7049C3.17486 11.7049 3.17486 11.6667 3.13661 11.6284C3.17486 11.6667 3.17486 11.6667 3.21311 11.7049C3.25137 11.7432 3.28962 11.7432 3.28962 11.7432C3.28962 11.7432 4.43716 9.25683 7.99454 7.99454H8.03279C8.87432 10.1749 9.21858 12.0109 9.29508 12.5464C8.60656 12.8525 7.80328 13.0055 6.96175 13.0055ZM10.3279 11.9727C10.2514 11.6284 9.94535 9.86885 9.18033 7.68852C11.1311 7.38251 12.776 7.91803 12.929 7.95628C12.623 9.63934 11.6667 11.0929 10.3279 11.9727ZM8.79781 6.77049C8.75956 6.65574 8.72131 6.57924 8.68306 6.46448C8.56831 6.15847 8.4153 5.89071 8.30055 5.5847C10.6721 4.62842 11.6284 3.21311 11.6284 3.21311C12.4699 4.2459 12.9672 5.54645 13.0055 6.96175C12.8907 6.9235 10.8634 6.50273 8.79781 6.77049Z" fill="#D6D6D6"/>
</svg>
