<svg width="14" height="14" viewBox="0 0 14 14" fill="none" xmlns="http://www.w3.org/2000/svg">
<path fill-rule="evenodd" clip-rule="evenodd" d="M14 13.235C14 13.6557 13.6576 14 13.2391 14H9.66304V8.56831H11.4891L11.7554 6.46448H9.66304V5.12568C9.66304 4.51366 9.81522 4.0929 10.6902 4.0929H11.7935V2.18033C11.6033 2.14208 10.9565 2.10383 10.1576 2.10383C8.55978 2.10383 7.45652 3.09836 7.45652 4.89617V6.46448H5.63043V8.56831H7.45652V14H0.76087C0.342391 14 0 13.6557 0 13.235V0.765027C0 0.344262 0.342391 0 0.76087 0H13.2011C13.6196 0 13.962 0.344262 13.962 0.765027V13.235H14Z" fill="#D6D6D6"/>
</svg>
