<svg width="17" height="14" viewBox="0 0 17 14" fill="none" xmlns="http://www.w3.org/2000/svg">
<path fill-rule="evenodd" clip-rule="evenodd" d="M16.4107 0.267516C15.7307 0.66879 15.0053 0.980892 14.1893 1.11465C13.5547 0.44586 12.648 0 11.6507 0C9.74667 0 8.16 1.56051 8.16 3.52229C8.16 3.78981 8.20533 4.05732 8.25067 4.32484C5.34933 4.19108 2.81067 2.76433 1.088 0.66879C0.770667 1.20382 0.634667 1.78344 0.634667 2.45223C0.634667 3.65605 1.26933 4.72611 2.176 5.3949C1.58667 5.3949 1.088 5.21656 0.589333 4.94904V4.99363C0.589333 6.6879 1.768 8.11465 3.4 8.42675C3.128 8.51592 2.81067 8.56051 2.49333 8.56051C2.26667 8.56051 2.04 8.56051 1.85867 8.51592C2.312 9.89809 3.58133 10.9236 5.12267 10.9682C3.944 11.9045 2.448 12.4841 0.816 12.4841C0.544 12.4841 0.272 12.4841 0 12.4395C1.54133 13.4204 3.35467 14 5.34933 14C11.7413 14 15.2773 8.64968 15.2773 4.01274C15.2773 3.87898 15.2773 3.70064 15.2773 3.56688C15.9573 3.07643 16.5467 2.45223 17 1.73885C16.3653 2.00637 15.6853 2.2293 15.0053 2.27389C15.5947 1.78344 16.1387 1.11465 16.4107 0.267516Z" fill="#D6D6D6"/>
</svg>
