<svg xmlns="http://www.w3.org/2000/svg" viewBox="0 0 17 14"><defs><style>.cls-1{fill:#fff;fill-rule:evenodd;}</style></defs><g id="Calque_2" data-name="Calque 2"><g id="Calque_1-2" data-name="Calque 1"><path class="cls-1" d="M16.41.27a6.27,6.27,0,0,1-2.22.84A3.56,3.56,0,0,0,11.65,0,3.51,3.51,0,0,0,8.16,3.52a5.29,5.29,0,0,0,.09.8A9.86,9.86,0,0,1,1.09.67,3.33,3.33,0,0,0,.63,2.45,3.67,3.67,0,0,0,2.18,5.39,3.25,3.25,0,0,1,.59,5V5A3.48,3.48,0,0,0,3.4,8.43a2.94,2.94,0,0,1-.91.13,3.13,3.13,0,0,1-.63,0A3.55,3.55,0,0,0,5.12,11a6.93,6.93,0,0,1-4.3,1.51,5.56,5.56,0,0,1-.82,0A9.94,9.94,0,0,0,15.28,4V3.57A6.67,6.67,0,0,0,17,1.74a6.06,6.06,0,0,1-2,.53A4.45,4.45,0,0,0,16.41.27Z"/></g></g></svg>